<svg xmlns="http://www.w3.org/2000/svg" width="512" height="512" viewBox="0 0 512 512">
  <defs>
    <linearGradient id="g" x1="0" y1="0" x2="1" y2="1">
      <stop offset="0" stop-color="#5b54f0"/>
      <stop offset="1" stop-color="#7c73ff"/>
    </linearGradient>
    <linearGradient id="a" x1="0" y1="0" x2="1" y2="1">
      <stop offset="0" stop-color="#f97316"/>
      <stop offset="1" stop-color="#fb923c"/>
    </linearGradient>
  </defs>
  <rect width="512" height="512" rx="112" fill="url(#g)"/>
  <circle cx="256" cy="256" r="150" fill="none" stroke="#ffffff" stroke-width="22" opacity="0.95"/>
  <path d="M256 128 l34 26 -13 41 h-42 l-13 -41 z" fill="#ffffff"/>
  <path d="M384 220 l14 40 -34 26 -34 -25 13 -41 z" fill="#ffffff"/>
  <path d="M128 220 l41 0 13 41 -34 25 -34 -26 z" fill="#ffffff"/>
  <path d="M198 356 l-13 -40 34 -25 34 25 -13 40 z" fill="#ffffff"/>
  <path d="M314 356 l-13 -40 34 -25 34 25 -13 40 z" fill="#ffffff"/>
  <circle cx="256" cy="256" r="46" fill="url(#a)"/>
</svg>
